# xmcd
#
# Track frame offsets:
#  150
#  18049
#  36776
#  55167
#  74090
#  91171
#  111955
#  134498
#  151695
#  175339
#  196538
#  212606
#  234628
#
# Disc length: 3354 seconds
#
# Revision: 1
# Processed by: cddbd v1.5.1PL2 Copyright (c) Steve Scherf et al.
# Submitted via: AltoMP3_Maker 3.0
#
DISCID=a70d180d
DTITLE=Sandy Carroll - Delta Techno
DYEAR=1900
DGENRE=
TTITLE0=Back in Business
TTITLE1=Toolbox
TTITLE2=Used To Be
TTITLE3=Where Blue Begins
TTITLE4=Bound For Glory
TTITLE5=Women In Me
TTITLE6=No Looking Back
TTITLE7=Bottom of the Blues
TTITLE8=Nothin' Hurts Like a Heart
TTITLE9=Smooth Blues
TTITLE10=Never Be Free
TTITLE11=Make Up Your Mind
TTITLE12=King of the Mountain
EXTD=
EXTT0=
EXTT1=
EXTT2=
EXTT3=
EXTT4=
EXTT5=
EXTT6=
EXTT7=
EXTT8=
EXTT9=
EXTT10=
EXTT11=
EXTT12=
PLAYORDER=
